<svg t="1780849244504" class="icon" viewBox="0 0 1024 1024" version="1.1" xmlns="http://www.w3.org/2000/svg" p-id="8586" width="20" height="20"><path d="M448.46 281.66c10.94-1.86 21.89 3.78 28.91 11.94 11.02 12.71 15.38 29.88 15.6 46.4-0.33 17.13-5.11 35.09-17.27 47.7-7.49 7.92-19.04 12.54-29.85 9.61-12.88-3.24-21.95-14.49-27.06-26.2-8.63-20.35-8.42-44.4 0.82-64.51 5.53-11.75 15.46-22.81 28.85-24.94m14.85 32.67c-7.25 3.33-10.3 11.53-12.02 18.79-1.76 10.58-0.86 22.21 5.25 31.33 2.86 4.28 8.03 8 13.41 6.45 6.54-2.09 10.23-8.63 12.26-14.78 3.23-11.24 2.79-24.01-2.98-34.36-3.02-5.41-9.55-10.43-15.92-7.43zM568.45 281.6c18.61-2.61 33.38 13.69 39.1 29.8 9.45 26.1 6.29 59.56-15.09 79.01-11.87 11.17-31.84 9.74-42.57-2.3-20.5-21.77-22.49-56.86-9.79-83.07 5.62-11.21 15.44-21.52 28.35-23.44m-17.84 40.99c-6.29 8.63-7.32 19.89-7.17 30.25 0.25 3.9 5.7 2.9 8.27 2.03 0.8-8.62-0.13-18.35 5.52-25.62 3.21-4.25 10.21-4.11 13.3 0.2 5.19 7.15 4.64 16.48 5.1 24.86 2.25 2.21 8.94 2.2 8.52-2.24-0.18-10.59-1.25-22.35-8.5-30.69-6.42-7.36-19.35-6.71-25.04 1.21z" fill="#FFFFFF" p-id="8587"></path><path d="M470.26 323.32c6.11-1.18 7.56 7.13 7.19 11.61 0.05 4.09-2.77 11.19-7.97 8.56-5.39-4.94-5.46-15.99 0.78-20.17zM336.58 554.85c8.46 5.03 17.13 9.75 26.12 13.75-2.13 15.09-5.83 30.05-6.36 45.37-0.17 11.69-1.07 23.38-0.39 35.07 0.21 3.84 1.17 8.13 4.69 10.31 19.63 13.49 44.33 14.76 67.35 15.09 5.39 0.34 10.91-3.16 11.5-8.81 3.71-24.25 0.95-48.85 1.67-73.25 31.91 5.22 64.45 9.39 96.78 5.82 28.02-2.33 55.86-7.05 83.07-14.14 23.32-6.7 45.57-16.86 66.43-29.2 4.89 22.98 5.33 46.89 1.69 70.09-6.8 37.04-19.94 74.23-45.56 102.58-21.5 23.54-48.76 42.76-79.79 51.17-36.03 9.58-74.77 9.06-110.38-2.05-29.55-9.77-55.42-28.99-75.73-52.32-22.14-25.93-34.37-58.71-41.26-91.72-5.38-25.55-5.13-52.24 0.17-77.76z" fill="#FFFFFF" p-id="8588"></path><path d="M437.89 194.86c23.81-9.37 49.59-13.33 75.12-12.72 34.25-0.64 69.07 7.31 98.38 25.42 40 23.88 72.2 61.07 89.66 104.29 13.56 37.16 17.15 77.04 17.92 116.32-8.37 18.48-23.87 32.74-38.91 45.93-21.93 19.61-47.43 35.64-75.7 44.24-24.44 7.27-49.96 10.19-75.38 10.99-37.45 0.9-75.6-0.51-111.62-11.72-28.32-9.01-53.63-25.57-75.55-45.41-14.27-12.38-27.98-26.21-36.7-43.16 0.41-34.03 3.42-68.31 12.64-101.19 3.89-13.78 9.17-27.22 16.47-39.56 23.34-41.15 59.8-75.23 103.67-93.43m10.57 86.8c-13.39 2.13-23.32 13.19-28.85 24.94-9.24 20.11-9.45 44.16-0.82 64.51 5.11 11.71 14.18 22.96 27.06 26.2 10.81 2.93 22.36-1.69 29.85-9.61 12.16-12.61 16.94-30.57 17.27-47.7-0.22-16.52-4.58-33.69-15.6-46.4-7.02-8.16-17.97-13.8-28.91-11.94m119.99-0.06c-12.91 1.92-22.73 12.23-28.35 23.44-12.7 26.21-10.71 61.3 9.79 83.07 10.73 12.04 30.7 13.47 42.57 2.3 21.38-19.45 24.54-52.91 15.09-79.01-5.72-16.11-20.49-32.41-39.1-29.8m-78.2 127.67c-30.34 1.12-60.38 7.28-89.12 16.93-8.21 3.2-17.12 6.02-23.48 12.4-4.12 4.02-1.21 10.23 1.86 13.95 7.6 8.83 18.33 13.93 28.22 19.69 17.97 9.75 34.19 22.49 52.69 31.32 15.97 8.08 33.32 15.08 51.58 14 20.63 1.23 39.81-7.8 57.63-17.07 17.14-9.11 32.64-20.95 49.81-30.01 10.43-6.32 23.11-11.86 28.37-23.62 2.8-6.2-3.43-10.83-8.19-13.39-16.44-8.67-34.74-12.98-52.71-17.26-31.63-7.43-64.33-8-96.66-6.94z" fill="#121214" p-id="8589"></path><path d="M463.31 314.33c6.37-3 12.9 2.02 15.92 7.43 5.77 10.35 6.21 23.12 2.98 34.36-2.03 6.15-5.72 12.69-12.26 14.78-5.38 1.55-10.55-2.17-13.41-6.45-6.11-9.12-7.01-20.75-5.25-31.33 1.72-7.26 4.77-15.46 12.02-18.79m6.95 8.99c-6.24 4.18-6.17 15.23-0.78 20.17 5.2 2.63 8.02-4.47 7.97-8.56 0.37-4.48-1.08-12.79-7.19-11.61m-9.34 27.81c1.74-2.77 2.29-8.21-1.9-8.92-4.89 1.28-3.6 10.62 1.9 8.92zM550.61 322.59c5.69-7.92 18.62-8.57 25.04-1.21 7.25 8.34 8.32 20.1 8.5 30.69 0.42 4.44-6.27 4.45-8.52 2.24-0.46-8.38 0.09-17.71-5.1-24.86-3.09-4.31-10.09-4.45-13.3-0.2-5.65 7.27-4.72 17-5.52 25.62-2.57 0.87-8.02 1.87-8.27-2.03-0.15-10.36 0.88-21.62 7.17-30.25zM279.3 503.55c15.38 20.77 34.97 38.27 57.28 51.3-5.3 25.52-5.55 52.21-0.17 77.76 6.89 33.01 19.12 65.79 41.26 91.72 20.31 23.33 46.18 42.55 75.73 52.32 35.61 11.11 74.35 11.63 110.38 2.05 31.03-8.41 58.29-27.63 79.79-51.17 25.62-28.35 38.76-65.54 45.56-102.58 3.64-23.2 3.2-47.11-1.69-70.09 22.34-13.01 41.88-30.56 57.32-51.28 19.28 28.46 36.35 59.49 43.01 93.54 4.77 27.67 3.13 56.68-6.52 83.16-1.86 5.02-4.47 10.3-9.24 13.12-4.48-0.11-8.37-3.03-11.95-5.47-15.01-11.08-23.11-28.58-29.4-45.6-7.22 24.98-20.4 47.8-35.49 68.81-8.04 11.34-17.56 21.63-28.28 30.48-21.85 18.09-47.45 30.93-73.5 41.8-21.93 9.4-45.87 13.23-69.59 14.2-7.86 0.1-15.71 0.1-23.57 0-24.22-0.97-48.67-4.99-70.99-14.79-25.55-10.76-50.65-23.45-72.09-41.23-10.92-8.98-20.56-19.49-28.69-31.05-14.9-20.88-28-43.5-35.07-68.3-6.11 16.64-13.95 33.71-28.32 44.85-3.88 2.8-8.12 6.12-13.07 6.28-4.98-2.97-7.57-8.56-9.47-13.81-9.56-26.76-11.12-56.05-5.96-83.9 6.86-33.51 23.72-64.05 42.73-92.12z" fill="#121214" p-id="8590"></path><path d="M460.92 351.13c-5.5 1.7-6.79-7.64-1.9-8.92 4.19 0.71 3.64 6.15 1.9 8.92z" fill="#717172" p-id="8591"></path><path d="M490.25 409.27c32.33-1.06 65.03-0.49 96.66 6.94 17.97 4.28 36.27 8.59 52.71 17.26 4.76 2.56 10.99 7.19 8.19 13.39-5.26 11.76-17.94 17.3-28.37 23.62-17.17 9.06-32.67 20.9-49.81 30.01-17.82 9.27-37 18.3-57.63 17.07-18.26 1.08-35.61-5.92-51.58-14-18.5-8.83-34.72-21.57-52.69-31.32-9.89-5.76-20.62-10.86-28.22-19.69-3.07-3.72-5.98-9.93-1.86-13.95 6.36-6.38 15.27-9.2 23.48-12.4 28.74-9.65 58.78-15.81 89.12-16.93m-76.5 45.51c9.45 9.97 22.49 15.43 34.16 22.32 15.21 6.83 27.45 19.09 43.26 24.71 13.66 2.82 27.99 2.82 41.66 0.02 15.81-5.6 28.04-17.88 43.26-24.71 11.32-6.71 23.98-11.95 33.26-21.52-21.5 13.35-45.47 24.99-71.26 25.83-17.1 1.62-34.34 1.66-51.45 0.06-26.39-0.85-51.11-12.57-72.89-26.71zM311.1 761.14c13.41-10.3 29.82-15.6 46.05-19.54 21.44 17.78 46.54 30.47 72.09 41.23 22.32 9.8 46.77 13.82 70.99 14.79-6.84 10.65-18.53 16.9-29.88 21.72-30.71 12.43-64.6 14.56-97.33 11.85-21.68-2.83-44.39-7.4-62.07-21.11-8.67-6.21-12.24-16.9-13.09-27.08 0.19-9.04 6.52-16.48 13.24-21.86zM593.39 783.42c26.05-10.87 51.65-23.71 73.5-41.8 17.5 4.28 35.53 10.03 49.21 22.27 7.42 6.45 12.8 17.05 8.72 26.82-1.82 13.6-13.85 22.38-25.38 27.86-26.59 12.29-56.55 14.56-85.46 13.38-22.52-1.31-45.21-5.48-65.78-15.03-9.35-4.54-18.74-10.33-24.4-19.3 23.72-0.97 47.66-4.8 69.59-14.2z" fill="#F9B618" p-id="8592"></path><path d="M718.97 428.17c2.02-1.83 5.17 0.48 6.44 2.21 6.67 24.17 13.04 48.42 19.86 72.55l-0.51 0.65c-15.44 20.72-34.98 38.27-57.32 51.28-20.86 12.34-43.11 22.5-66.43 29.2-27.21 7.09-55.05 11.81-83.07 14.14-32.33 3.57-64.87-0.6-96.78-5.82-0.72 24.4 2.04 49-1.67 73.25-0.59 5.65-6.11 9.15-11.5 8.81-23.02-0.33-47.72-1.6-67.35-15.09-3.52-2.18-4.48-6.47-4.69-10.31-0.68-11.69 0.22-23.38 0.39-35.07 0.53-15.32 4.23-30.28 6.36-45.37-8.99-4-17.66-8.72-26.12-13.75-22.31-13.03-41.9-30.53-57.28-51.3-0.64-1.19 0.25-2.52 0.4-3.72 6.35-23.34 12.8-46.65 19-70.03 2.01-0.43 4.58-2.52 6.41-0.76 8.72 16.95 22.43 30.78 36.7 43.16 21.92 19.84 47.23 36.4 75.55 45.41 36.02 11.21 74.17 12.62 111.62 11.72 25.42-0.8 50.94-3.72 75.38-10.99 28.27-8.6 53.77-24.63 75.7-44.24 15.04-13.19 30.54-27.45 38.91-45.93z" fill="#E32B10" p-id="8593"></path><path d="M413.75 454.78c21.78 14.14 46.5 25.86 72.89 26.71 17.11 1.6 34.35 1.56 51.45-0.06 25.79-0.84 49.76-12.48 71.26-25.83-9.28 9.57-21.94 14.81-33.26 21.52-15.22 6.83-27.45 19.11-43.26 24.71-13.67 2.8-28 2.8-41.66-0.02-15.81-5.62-28.05-17.88-43.26-24.71-11.67-6.89-24.71-12.35-34.16-22.32z" fill="#8E2E00" p-id="8594"></path></svg>